<svg xmlns="http://www.w3.org/2000/svg" viewBox="0 0 17 17" class="PaidAssetsCountBadge-icon-MVw" role="graphics-symbol img" aria-hidden="true"><path d="m11.48,14.71H3.92c-.28,0-.5-.22-.5-.5s.22-.5.5-.5h7.56c.31,0,.58-.23.63-.54L14.13,1.37c.14-.79.82-1.37,1.62-1.37h.75c.28,0,.5.22.5.5s-.22.5-.5.5h-.75c-.31,0-.58.23-.63.54l-2.01,11.81c-.14.79-.82,1.37-1.62,1.37Zm1.13-4.43H3.83c-.82,0-1.53-.56-1.73-1.35l-1.1-4.42s.01-.08.07-.09h12.53l.17-1H1.07c-.09,0-.18.01-.26.03-.57.14-.92.73-.78,1.3l1.1,4.42c.31,1.24,1.42,2.11,2.7,2.11h8.61l.17-1Zm-7.26,5.64c-.16,0-.29.13-.29.29s.13.29.29.29.29-.13.29-.29-.13-.29-.29-.29Zm.79.29c0-.43-.35-.79-.79-.79s-.79.35-.79.79.35.79.79.79.79-.35.79-.79Zm-.57,0c0,.24-.43.24-.43,0,0-.12.1-.21.21-.21s.21.1.21.21Zm5.48-.3c-.16,0-.29.13-.29.29s.13.29.29.29.29-.13.29-.29-.13-.29-.29-.29Zm.79.29c0-.43-.35-.79-.79-.79s-.79.35-.79.79.35.79.79.79.79-.35.79-.79Zm-.57,0c0,.24-.43.24-.43,0,0-.12.1-.21.21-.21s.21.1.21.21Z"></path></svg>